<svg width="282" height="282" viewBox="0 0 282 282" fill="none" xmlns="http://www.w3.org/2000/svg">
  <rect width="282" height="282" fill="#F8F8F8"/>
  <circle cx="141" cy="141" r="38" fill="white" stroke="#DB3939" stroke-width="4"/>
  <path d="M132.973 128.547V154H127.664V133.574H127.523L121.688 137.23V132.555L127.98 128.547H132.973ZM148.16 128.195C153.434 128.23 158.426 131.359 158.426 140.605C158.461 149.254 154.348 154.352 147.949 154.352C142.816 154.352 139.336 151.152 138.809 146.828H144.012C144.434 148.691 145.91 149.816 147.949 149.816C151.43 149.816 153.258 146.723 153.258 141.625H153.047C151.852 143.875 149.355 145.211 146.508 145.211C141.938 145.211 138.562 141.766 138.527 137.02C138.527 131.887 142.395 128.16 148.16 128.195ZM148.195 132.344C145.594 132.344 143.66 134.348 143.695 136.879C143.695 139.375 145.559 141.344 148.16 141.344C150.727 141.344 152.73 139.305 152.73 136.844C152.695 134.418 150.797 132.344 148.195 132.344Z" fill="black"/>
</svg>
